# MagicaVoxel @ Ephtracy

# group
o 

# material
mtllib car_1_light.mtl
usemtl palette

# normals
vn -1 0 0
vn 1 0 0
vn 0 0 1
vn 0 0 -1
vn 0 -1 0
vn 0 1 0

# texcoords
vt 0.0996094 0.5
vt 0.111328 0.5
vt 0.134766 0.5

# verts
v -6.8 4 3.2
v -6.8 4 2.4
v -6.8 4 2
v -6.8 4 -2
v -6.8 4 -2.4
v -6.8 4 -3.2
v -6.8 4.3 3.2
v -6.8 4.3 2.4
v -6.8 4.3 2
v -6.8 4.3 -2
v -6.8 4.3 -2.4
v -6.8 4.3 -3.2
v -6.7 4.3 3.1
v -6.7 4.3 2.4
v -6.7 4.3 2
v -6.7 4.3 -2
v -6.7 4.3 -2.4
v -6.7 4.3 -3.1
v -6.7 4.4 3.1
v -6.7 4.4 2.4
v -6.7 4.4 2
v -6.7 4.4 -2
v -6.7 4.4 -2.4
v -6.7 4.4 -3.1
v 3.2 4 3.2
v 3.2 4 2.8
v 3.2 4 -2.8
v 3.2 4 -3.2
v 3.2 4.4 3.2
v 3.2 4.4 2.8
v 3.2 4.4 -2.8
v 3.2 4.4 -3.2
v 6.8 3.6 3.2
v 6.8 3.6 2.8
v 6.8 3.6 -2.8
v 6.8 3.6 -3.2
v 6.8 4 3.2
v 6.8 4 2.8
v 6.8 4 -2.8
v 6.8 4 -3.2
v 7.2 3.6 1.6
v 7.2 3.6 1.2
v 7.2 3.6 -1.2
v 7.2 3.6 -1.6
v 7.2 4 1.6
v 7.2 4 1.2
v 7.2 4 -1.2
v 7.2 4 -1.6
v 7.5 3.6 1.2
v 7.5 3.6 1.1
v 7.5 3.6 -1.1
v 7.5 3.6 -1.2
v 7.5 3.7 1.7
v 7.5 3.7 1.6
v 7.5 3.7 1.1
v 7.5 3.7 1
v 7.5 3.7 -1
v 7.5 3.7 -1.1
v 7.5 3.7 -1.6
v 7.5 3.7 -1.7
v 7.5 3.8 1.9
v 7.5 3.8 1.7
v 7.5 3.8 -1.7
v 7.5 3.8 -1.9
v 7.5 3.9 1.1
v 7.5 3.9 1
v 7.5 3.9 -1
v 7.5 3.9 -1.1
v 7.5 4 1.9
v 7.5 4 1.6
v 7.5 4 1.2
v 7.5 4 1.1
v 7.5 4 -1.1
v 7.5 4 -1.2
v 7.5 4 -1.6
v 7.5 4 -1.9
v -6.4 4 3.2
v -6.4 4 2.4
v -6.4 4 2
v -6.4 4 -2
v -6.4 4 -2.4
v -6.4 4 -3.2
v -6.4 4.3 3.2
v -6.4 4.3 3.1
v -6.4 4.3 -3.1
v -6.4 4.3 -3.2
v -6.4 4.4 3.1
v -6.4 4.4 2.4
v -6.4 4.4 2
v -6.4 4.4 -2
v -6.4 4.4 -2.4
v -6.4 4.4 -3.1
v 4 4 3.2
v 4 4 2.8
v 4 4 -2.8
v 4 4 -3.2
v 4 4.4 3.2
v 4 4.4 2.8
v 4 4.4 -2.8
v 4 4.4 -3.2
v 7.2 3.6 3.2
v 7.2 3.6 2.8
v 7.2 3.6 -2.8
v 7.2 3.6 -3.2
v 7.2 4 3.2
v 7.2 4 2.8
v 7.2 4 -2.8
v 7.2 4 -3.2
v 7.6 3.6 1.6
v 7.6 3.6 1.1
v 7.6 3.6 -1.1
v 7.6 3.6 -1.6
v 7.6 3.7 1.7
v 7.6 3.7 1.6
v 7.6 3.7 1.1
v 7.6 3.7 1
v 7.6 3.7 -1
v 7.6 3.7 -1.1
v 7.6 3.7 -1.6
v 7.6 3.7 -1.7
v 7.6 3.8 1.9
v 7.6 3.8 1.7
v 7.6 3.8 -1.7
v 7.6 3.8 -1.9
v 7.6 3.9 1.1
v 7.6 3.9 1
v 7.6 3.9 -1
v 7.6 3.9 -1.1
v 7.6 4 1.9
v 7.6 4 1.1
v 7.6 4 -1.1
v 7.6 4 -1.9
v -6.8 4 3.2
v -6.8 4.3 3.2
v -6.4 4 3.2
v -6.4 4.3 3.2
v 3.2 4 3.2
v 3.2 4.4 3.2
v 4 4 3.2
v 4 4.4 3.2
v 6.8 3.6 3.2
v 6.8 4 3.2
v 7.2 3.6 3.2
v 7.2 4 3.2
v -6.7 4.3 3.1
v -6.7 4.4 3.1
v -6.4 4.3 3.1
v -6.4 4.4 3.1
v 7.5 3.8 1.9
v 7.5 4 1.9
v 7.6 3.8 1.9
v 7.6 4 1.9
v 7.5 3.7 1.7
v 7.5 3.8 1.7
v 7.6 3.7 1.7
v 7.6 3.8 1.7
v 7.2 3.6 1.6
v 7.2 4 1.6
v 7.5 3.7 1.6
v 7.5 4 1.6
v 7.6 3.6 1.6
v 7.6 3.7 1.6
v 7.5 3.7 -1
v 7.5 3.9 -1
v 7.6 3.7 -1
v 7.6 3.9 -1
v 7.5 3.6 -1.1
v 7.5 3.7 -1.1
v 7.5 3.9 -1.1
v 7.5 4 -1.1
v 7.6 3.6 -1.1
v 7.6 3.7 -1.1
v 7.6 3.9 -1.1
v 7.6 4 -1.1
v 7.2 3.6 -1.2
v 7.2 4 -1.2
v 7.5 3.6 -1.2
v 7.5 4 -1.2
v -6.8 4 -2
v -6.8 4.3 -2
v -6.7 4.3 -2
v -6.7 4.4 -2
v -6.4 4 -2
v -6.4 4.4 -2
v 3.2 4 -2.8
v 3.2 4.4 -2.8
v 4 4 -2.8
v 4 4.4 -2.8
v 6.8 3.6 -2.8
v 6.8 4 -2.8
v 7.2 3.6 -2.8
v 7.2 4 -2.8
v 3.2 4 2.8
v 3.2 4.4 2.8
v 4 4 2.8
v 4 4.4 2.8
v 6.8 3.6 2.8
v 6.8 4 2.8
v 7.2 3.6 2.8
v 7.2 4 2.8
v -6.8 4 2
v -6.8 4.3 2
v -6.7 4.3 2
v -6.7 4.4 2
v -6.4 4 2
v -6.4 4.4 2
v 7.2 3.6 1.2
v 7.2 4 1.2
v 7.5 3.6 1.2
v 7.5 4 1.2
v 7.5 3.6 1.1
v 7.5 3.7 1.1
v 7.5 3.9 1.1
v 7.5 4 1.1
v 7.6 3.6 1.1
v 7.6 3.7 1.1
v 7.6 3.9 1.1
v 7.6 4 1.1
v 7.5 3.7 1
v 7.5 3.9 1
v 7.6 3.7 1
v 7.6 3.9 1
v 7.2 3.6 -1.6
v 7.2 4 -1.6
v 7.5 3.7 -1.6
v 7.5 4 -1.6
v 7.6 3.6 -1.6
v 7.6 3.7 -1.6
v 7.5 3.7 -1.7
v 7.5 3.8 -1.7
v 7.6 3.7 -1.7
v 7.6 3.8 -1.7
v 7.5 3.8 -1.9
v 7.5 4 -1.9
v 7.6 3.8 -1.9
v 7.6 4 -1.9
v -6.7 4.3 -3.1
v -6.7 4.4 -3.1
v -6.4 4.3 -3.1
v -6.4 4.4 -3.1
v -6.8 4 -3.2
v -6.8 4.3 -3.2
v -6.4 4 -3.2
v -6.4 4.3 -3.2
v 3.2 4 -3.2
v 3.2 4.4 -3.2
v 4 4 -3.2
v 4 4.4 -3.2
v 6.8 3.6 -3.2
v 6.8 4 -3.2
v 7.2 3.6 -3.2
v 7.2 4 -3.2
v 6.8 3.6 3.2
v 7.2 3.6 3.2
v 6.8 3.6 2.8
v 7.2 3.6 2.8
v 7.2 3.6 1.6
v 7.6 3.6 1.6
v 7.2 3.6 1.2
v 7.5 3.6 1.2
v 7.5 3.6 1.1
v 7.6 3.6 1.1
v 7.5 3.6 -1.1
v 7.6 3.6 -1.1
v 7.2 3.6 -1.2
v 7.5 3.6 -1.2
v 7.2 3.6 -1.6
v 7.6 3.6 -1.6
v 6.8 3.6 -2.8
v 7.2 3.6 -2.8
v 6.8 3.6 -3.2
v 7.2 3.6 -3.2
v 7.5 3.7 1.7
v 7.6 3.7 1.7
v 7.5 3.7 1.6
v 7.6 3.7 1.6
v 7.5 3.7 1.1
v 7.6 3.7 1.1
v 7.5 3.7 1
v 7.6 3.7 1
v 7.5 3.7 -1
v 7.6 3.7 -1
v 7.5 3.7 -1.1
v 7.6 3.7 -1.1
v 7.5 3.7 -1.6
v 7.6 3.7 -1.6
v 7.5 3.7 -1.7
v 7.6 3.7 -1.7
v 7.5 3.8 1.9
v 7.6 3.8 1.9
v 7.5 3.8 1.7
v 7.6 3.8 1.7
v 7.5 3.8 -1.7
v 7.6 3.8 -1.7
v 7.5 3.8 -1.9
v 7.6 3.8 -1.9
v -6.8 4 3.2
v -6.4 4 3.2
v 3.2 4 3.2
v 4 4 3.2
v 3.2 4 2.8
v 4 4 2.8
v -6.8 4 2.4
v -6.4 4 2.4
v -6.8 4 2
v -6.4 4 2
v -6.8 4 -2
v -6.4 4 -2
v -6.8 4 -2.4
v -6.4 4 -2.4
v 3.2 4 -2.8
v 4 4 -2.8
v -6.8 4 -3.2
v -6.4 4 -3.2
v 3.2 4 -3.2
v 4 4 -3.2
v 7.5 3.9 1.1
v 7.6 3.9 1.1
v 7.5 3.9 1
v 7.6 3.9 1
v 7.5 3.9 -1
v 7.6 3.9 -1
v 7.5 3.9 -1.1
v 7.6 3.9 -1.1
v 6.8 4 3.2
v 7.2 4 3.2
v 6.8 4 2.8
v 7.2 4 2.8
v 7.5 4 1.9
v 7.6 4 1.9
v 7.2 4 1.6
v 7.5 4 1.6
v 7.2 4 1.2
v 7.5 4 1.2
v 7.5 4 1.1
v 7.6 4 1.1
v 7.5 4 -1.1
v 7.6 4 -1.1
v 7.2 4 -1.2
v 7.5 4 -1.2
v 7.2 4 -1.6
v 7.5 4 -1.6
v 7.5 4 -1.9
v 7.6 4 -1.9
v 6.8 4 -2.8
v 7.2 4 -2.8
v 6.8 4 -3.2
v 7.2 4 -3.2
v -6.8 4.3 3.2
v -6.4 4.3 3.2
v -6.7 4.3 3.1
v -6.4 4.3 3.1
v -6.8 4.3 2.4
v -6.7 4.3 2.4
v -6.8 4.3 2
v -6.7 4.3 2
v -6.8 4.3 -2
v -6.7 4.3 -2
v -6.8 4.3 -2.4
v -6.7 4.3 -2.4
v -6.7 4.3 -3.1
v -6.4 4.3 -3.1
v -6.8 4.3 -3.2
v -6.4 4.3 -3.2
v 3.2 4.4 3.2
v 4 4.4 3.2
v -6.7 4.4 3.1
v -6.4 4.4 3.1
v 3.2 4.4 2.8
v 4 4.4 2.8
v -6.7 4.4 2.4
v -6.4 4.4 2.4
v -6.7 4.4 2
v -6.4 4.4 2
v -6.7 4.4 -2
v -6.4 4.4 -2
v -6.7 4.4 -2.4
v -6.4 4.4 -2.4
v 3.2 4.4 -2.8
v 4 4.4 -2.8
v -6.7 4.4 -3.1
v -6.4 4.4 -3.1
v 3.2 4.4 -3.2
v 4 4.4 -3.2

# faces
f 7/3/1 2/3/1 1/3/1
f 8/2/1 3/2/1 2/2/1
f 8/3/1 2/3/1 7/3/1
f 9/2/1 3/2/1 8/2/1
f 10/2/1 5/2/1 4/2/1
f 11/3/1 6/3/1 5/3/1
f 11/2/1 5/2/1 10/2/1
f 12/3/1 6/3/1 11/3/1
f 19/3/1 14/3/1 13/3/1
f 20/2/1 15/2/1 14/2/1
f 20/3/1 14/3/1 19/3/1
f 21/2/1 15/2/1 20/2/1
f 22/2/1 17/2/1 16/2/1
f 23/3/1 18/3/1 17/3/1
f 23/2/1 17/2/1 22/2/1
f 24/3/1 18/3/1 23/3/1
f 29/2/1 26/2/1 25/2/1
f 30/2/1 26/2/1 29/2/1
f 31/2/1 28/2/1 27/2/1
f 32/2/1 28/2/1 31/2/1
f 37/2/1 34/2/1 33/2/1
f 38/2/1 34/2/1 37/2/1
f 39/2/1 36/2/1 35/2/1
f 40/2/1 36/2/1 39/2/1
f 45/1/1 42/1/1 41/1/1
f 46/1/1 42/1/1 45/1/1
f 47/1/1 44/1/1 43/1/1
f 48/1/1 44/1/1 47/1/1
f 55/1/1 50/1/1 49/1/1
f 58/1/1 52/1/1 51/1/1
f 62/1/1 54/1/1 53/1/1
f 63/1/1 60/1/1 59/1/1
f 65/1/1 56/1/1 55/1/1
f 65/1/1 55/1/1 49/1/1
f 66/1/1 56/1/1 65/1/1
f 67/1/1 58/1/1 57/1/1
f 68/1/1 52/1/1 58/1/1
f 68/1/1 58/1/1 67/1/1
f 69/1/1 62/1/1 61/1/1
f 70/1/1 54/1/1 62/1/1
f 70/1/1 62/1/1 69/1/1
f 71/1/1 65/1/1 49/1/1
f 72/1/1 65/1/1 71/1/1
f 73/1/1 52/1/1 68/1/1
f 74/1/1 52/1/1 73/1/1
f 75/1/1 64/1/1 63/1/1
f 75/1/1 63/1/1 59/1/1
f 76/1/1 64/1/1 75/1/1
f 77/3/2 78/3/2 83/3/2
f 83/3/2 78/3/2 84/3/2
f 81/3/2 82/3/2 85/3/2
f 85/3/2 82/3/2 86/3/2
f 84/3/2 78/3/2 87/3/2
f 78/2/2 79/2/2 88/2/2
f 87/3/2 78/3/2 88/3/2
f 88/2/2 79/2/2 89/2/2
f 80/2/2 81/2/2 90/2/2
f 81/3/2 85/3/2 91/3/2
f 90/2/2 81/2/2 91/2/2
f 91/3/2 85/3/2 92/3/2
f 93/2/2 94/2/2 97/2/2
f 97/2/2 94/2/2 98/2/2
f 95/2/2 96/2/2 99/2/2
f 99/2/2 96/2/2 100/2/2
f 101/2/2 102/2/2 105/2/2
f 105/2/2 102/2/2 106/2/2
f 103/2/2 104/2/2 107/2/2
f 107/2/2 104/2/2 108/2/2
f 109/1/2 110/1/2 114/1/2
f 114/1/2 110/1/2 115/1/2
f 111/1/2 112/1/2 118/1/2
f 118/1/2 112/1/2 119/1/2
f 115/1/2 116/1/2 122/1/2
f 113/1/2 114/1/2 122/1/2
f 114/1/2 115/1/2 122/1/2
f 119/1/2 120/1/2 123/1/2
f 118/1/2 119/1/2 123/1/2
f 117/1/2 118/1/2 123/1/2
f 121/1/2 122/1/2 125/1/2
f 122/1/2 116/1/2 125/1/2
f 125/1/2 116/1/2 126/1/2
f 123/1/2 124/1/2 127/1/2
f 117/1/2 123/1/2 127/1/2
f 127/1/2 124/1/2 128/1/2
f 121/1/2 125/1/2 129/1/2
f 129/1/2 125/1/2 130/1/2
f 128/1/2 124/1/2 131/1/2
f 131/1/2 124/1/2 132/1/2
f 135/3/3 134/3/3 133/3/3
f 136/3/3 134/3/3 135/3/3
f 139/2/3 138/2/3 137/2/3
f 140/2/3 138/2/3 139/2/3
f 143/2/3 142/2/3 141/2/3
f 144/2/3 142/2/3 143/2/3
f 147/3/3 146/3/3 145/3/3
f 148/3/3 146/3/3 147/3/3
f 151/1/3 150/1/3 149/1/3
f 152/1/3 150/1/3 151/1/3
f 155/1/3 154/1/3 153/1/3
f 156/1/3 154/1/3 155/1/3
f 159/1/3 158/1/3 157/1/3
f 160/1/3 158/1/3 159/1/3
f 161/1/3 159/1/3 157/1/3
f 162/1/3 159/1/3 161/1/3
f 165/1/3 164/1/3 163/1/3
f 166/1/3 164/1/3 165/1/3
f 171/1/3 168/1/3 167/1/3
f 172/1/3 168/1/3 171/1/3
f 173/1/3 170/1/3 169/1/3
f 174/1/3 170/1/3 173/1/3
f 177/1/3 176/1/3 175/1/3
f 178/1/3 176/1/3 177/1/3
f 181/2/3 180/2/3 179/2/3
f 183/2/3 181/2/3 179/2/3
f 183/2/3 182/2/3 181/2/3
f 184/2/3 182/2/3 183/2/3
f 187/2/3 186/2/3 185/2/3
f 188/2/3 186/2/3 187/2/3
f 191/2/3 190/2/3 189/2/3
f 192/2/3 190/2/3 191/2/3
f 193/2/4 194/2/4 195/2/4
f 195/2/4 194/2/4 196/2/4
f 197/2/4 198/2/4 199/2/4
f 199/2/4 198/2/4 200/2/4
f 201/2/4 202/2/4 203/2/4
f 201/2/4 203/2/4 205/2/4
f 203/2/4 204/2/4 205/2/4
f 205/2/4 204/2/4 206/2/4
f 207/1/4 208/1/4 209/1/4
f 209/1/4 208/1/4 210/1/4
f 211/1/4 212/1/4 215/1/4
f 215/1/4 212/1/4 216/1/4
f 213/1/4 214/1/4 217/1/4
f 217/1/4 214/1/4 218/1/4
f 219/1/4 220/1/4 221/1/4
f 221/1/4 220/1/4 222/1/4
f 223/1/4 224/1/4 225/1/4
f 225/1/4 224/1/4 226/1/4
f 223/1/4 225/1/4 227/1/4
f 227/1/4 225/1/4 228/1/4
f 229/1/4 230/1/4 231/1/4
f 231/1/4 230/1/4 232/1/4
f 233/1/4 234/1/4 235/1/4
f 235/1/4 234/1/4 236/1/4
f 237/3/4 238/3/4 239/3/4
f 239/3/4 238/3/4 240/3/4
f 241/3/4 242/3/4 243/3/4
f 243/3/4 242/3/4 244/3/4
f 245/2/4 246/2/4 247/2/4
f 247/2/4 246/2/4 248/2/4
f 249/2/4 250/2/4 251/2/4
f 251/2/4 250/2/4 252/2/4
f 255/2/5 254/2/5 253/2/5
f 256/2/5 254/2/5 255/2/5
f 259/1/5 258/1/5 257/1/5
f 260/1/5 258/1/5 259/1/5
f 261/1/5 258/1/5 260/1/5
f 262/1/5 258/1/5 261/1/5
f 266/1/5 264/1/5 263/1/5
f 267/1/5 266/1/5 265/1/5
f 268/1/5 264/1/5 266/1/5
f 268/1/5 266/1/5 267/1/5
f 271/2/5 270/2/5 269/2/5
f 272/2/5 270/2/5 271/2/5
f 275/1/5 274/1/5 273/1/5
f 276/1/5 274/1/5 275/1/5
f 279/1/5 278/1/5 277/1/5
f 280/1/5 278/1/5 279/1/5
f 283/1/5 282/1/5 281/1/5
f 284/1/5 282/1/5 283/1/5
f 287/1/5 286/1/5 285/1/5
f 288/1/5 286/1/5 287/1/5
f 291/1/5 290/1/5 289/1/5
f 292/1/5 290/1/5 291/1/5
f 295/1/5 294/1/5 293/1/5
f 296/1/5 294/1/5 295/1/5
f 301/2/5 300/2/5 299/2/5
f 302/2/5 300/2/5 301/2/5
f 303/3/5 298/3/5 297/3/5
f 304/3/5 298/3/5 303/3/5
f 305/2/5 304/2/5 303/2/5
f 306/2/5 304/2/5 305/2/5
f 309/2/5 308/2/5 307/2/5
f 310/2/5 308/2/5 309/2/5
f 313/3/5 310/3/5 309/3/5
f 314/3/5 310/3/5 313/3/5
f 315/2/5 312/2/5 311/2/5
f 316/2/5 312/2/5 315/2/5
f 317/1/6 318/1/6 319/1/6
f 319/1/6 318/1/6 320/1/6
f 321/1/6 322/1/6 323/1/6
f 323/1/6 322/1/6 324/1/6
f 325/2/6 326/2/6 327/2/6
f 327/2/6 326/2/6 328/2/6
f 329/1/6 330/1/6 332/1/6
f 331/1/6 332/1/6 333/1/6
f 332/1/6 330/1/6 334/1/6
f 333/1/6 332/1/6 334/1/6
f 334/1/6 330/1/6 335/1/6
f 335/1/6 330/1/6 336/1/6
f 337/1/6 338/1/6 340/1/6
f 339/1/6 340/1/6 341/1/6
f 340/1/6 338/1/6 342/1/6
f 341/1/6 340/1/6 342/1/6
f 342/1/6 338/1/6 343/1/6
f 343/1/6 338/1/6 344/1/6
f 345/2/6 346/2/6 347/2/6
f 347/2/6 346/2/6 348/2/6
f 349/3/6 350/3/6 351/3/6
f 351/3/6 350/3/6 352/3/6
f 349/3/6 351/3/6 353/3/6
f 353/3/6 351/3/6 354/3/6
f 353/2/6 354/2/6 355/2/6
f 355/2/6 354/2/6 356/2/6
f 357/2/6 358/2/6 359/2/6
f 359/2/6 358/2/6 360/2/6
f 359/3/6 360/3/6 361/3/6
f 359/3/6 361/3/6 363/3/6
f 361/3/6 362/3/6 363/3/6
f 363/3/6 362/3/6 364/3/6
f 365/2/6 366/2/6 369/2/6
f 369/2/6 366/2/6 370/2/6
f 367/3/6 368/3/6 371/3/6
f 371/3/6 368/3/6 372/3/6
f 371/2/6 372/2/6 373/2/6
f 373/2/6 372/2/6 374/2/6
f 375/2/6 376/2/6 377/2/6
f 377/2/6 376/2/6 378/2/6
f 377/3/6 378/3/6 381/3/6
f 381/3/6 378/3/6 382/3/6
f 379/2/6 380/2/6 383/2/6
f 383/2/6 380/2/6 384/2/6
