# MagicaVoxel @ Ephtracy

# group
o 

# material
mtllib road_2.mtl
usemtl palette

# normals
vn -1 0 0
vn 1 0 0
vn 0 0 1
vn 0 0 -1
vn 0 -1 0
vn 0 1 0

# texcoords
vt 0.00585938 0.5
vt 0.0175781 0.5
vt 0.0292969 0.5
vt 0.0410156 0.5

# verts
v -3.2 0 3.2
v -3.2 0 2.6
v -3.2 0 -2.6
v -3.2 0 -3.2
v -3.2 0.7 2.6
v -3.2 0.7 2.4
v -3.2 0.7 0.0999999
v -3.2 0.7 -0.1
v -3.2 0.7 -2.4
v -3.2 0.7 -2.6
v -3.2 0.8 3.2
v -3.2 0.8 2.6
v -3.2 0.8 2.4
v -3.2 0.8 0.0999999
v -3.2 0.8 -0.1
v -3.2 0.8 -2.4
v -3.2 0.8 -2.6
v -3.2 0.8 -3.2
v -1.3 4.3 1.7
v -1.3 4.3 1.4
v -1.3 4.3 -1.4
v -1.3 4.3 -1.7
v -1.3 4.4 1.7
v -1.3 4.4 1.4
v -1.3 4.4 -1.4
v -1.3 4.4 -1.7
v -1.2 0.8 0
v -1.2 0.8 -0.1
v -1.2 3.5 0.0999999
v -1.2 3.5 0
v -1.2 3.6 0.2
v -1.2 3.6 0.0999999
v -1.2 3.6 0
v -1.2 3.6 -0.1
v -1.2 3.6 -0.2
v -1.2 3.7 0.3
v -1.2 3.7 0.2
v -1.2 3.7 0.0999999
v -1.2 3.7 -0.1
v -1.2 3.7 -0.2
v -1.2 3.7 -0.3
v -1.2 3.8 0.4
v -1.2 3.8 0.3
v -1.2 3.8 0.2
v -1.2 3.8 -0.2
v -1.2 3.8 -0.3
v -1.2 3.8 -0.4
v -1.2 3.9 0.5
v -1.2 3.9 0.4
v -1.2 3.9 0.3
v -1.2 3.9 -0.3
v -1.2 3.9 -0.4
v -1.2 3.9 -0.5
v -1.2 4 0.6
v -1.2 4 0.5
v -1.2 4 0.4
v -1.2 4 -0.4
v -1.2 4 -0.5
v -1.2 4 -0.6
v -1.2 4.1 0.7
v -1.2 4.1 0.6
v -1.2 4.1 0.5
v -1.2 4.1 -0.5
v -1.2 4.1 -0.6
v -1.2 4.1 -0.7
v -1.2 4.2 0.8
v -1.2 4.2 0.7
v -1.2 4.2 0.6
v -1.2 4.2 -0.6
v -1.2 4.2 -0.7
v -1.2 4.2 -0.8
v -1.2 4.3 1.4
v -1.2 4.3 0.8
v -1.2 4.3 0.7
v -1.2 4.3 0
v -1.2 4.3 -0.1
v -1.2 4.3 -0.7
v -1.2 4.3 -0.8
v -1.2 4.3 -1.4
v -1.2 4.4 1.6
v -1.2 4.4 1.5
v -1.2 4.4 1.4
v -1.2 4.4 -1.4
v -1.2 4.4 -1.5
v -1.2 4.4 -1.6
v -1.2 4.5 1.6
v -1.2 4.5 1.5
v -1.2 4.5 -1.5
v -1.2 4.5 -1.6
v -1.1 0.8 0
v -1.1 0.8 -0.1
v -1.1 3.5 0.0999999
v -1.1 3.5 0
v -1.1 3.6 0.2
v -1.1 3.6 0.0999999
v -1.1 3.6 0
v -1.1 3.6 -0.1
v -1.1 3.6 -0.2
v -1.1 3.7 0.3
v -1.1 3.7 0.2
v -1.1 3.7 0.0999999
v -1.1 3.7 -0.1
v -1.1 3.7 -0.2
v -1.1 3.7 -0.3
v -1.1 3.8 0.4
v -1.1 3.8 0.3
v -1.1 3.8 0.2
v -1.1 3.8 -0.2
v -1.1 3.8 -0.3
v -1.1 3.8 -0.4
v -1.1 3.9 0.5
v -1.1 3.9 0.4
v -1.1 3.9 0.3
v -1.1 3.9 -0.3
v -1.1 3.9 -0.4
v -1.1 3.9 -0.5
v -1.1 4 0.6
v -1.1 4 0.5
v -1.1 4 0.4
v -1.1 4 -0.4
v -1.1 4 -0.5
v -1.1 4 -0.6
v -1.1 4.1 0.7
v -1.1 4.1 0.6
v -1.1 4.1 0.5
v -1.1 4.1 -0.5
v -1.1 4.1 -0.6
v -1.1 4.1 -0.7
v -1.1 4.2 0.8
v -1.1 4.2 0.7
v -1.1 4.2 0.6
v -1.1 4.2 -0.6
v -1.1 4.2 -0.7
v -1.1 4.2 -0.8
v -1.1 4.3 1.4
v -1.1 4.3 0.8
v -1.1 4.3 0.7
v -1.1 4.3 0
v -1.1 4.3 -0.1
v -1.1 4.3 -0.7
v -1.1 4.3 -0.8
v -1.1 4.3 -1.4
v -1.1 4.4 1.6
v -1.1 4.4 1.5
v -1.1 4.4 1.4
v -1.1 4.4 -1.4
v -1.1 4.4 -1.5
v -1.1 4.4 -1.6
v -1.1 4.5 1.6
v -1.1 4.5 1.5
v -1.1 4.5 -1.5
v -1.1 4.5 -1.6
v -1 4.3 1.7
v -1 4.3 1.4
v -1 4.3 -1.4
v -1 4.3 -1.7
v -1 4.4 1.7
v -1 4.4 1.4
v -1 4.4 -1.4
v -1 4.4 -1.7
v 3.2 0 3.2
v 3.2 0 2.6
v 3.2 0 -2.6
v 3.2 0 -3.2
v 3.2 0.7 2.6
v 3.2 0.7 2.4
v 3.2 0.7 0.0999999
v 3.2 0.7 -0.1
v 3.2 0.7 -2.4
v 3.2 0.7 -2.6
v 3.2 0.8 3.2
v 3.2 0.8 2.6
v 3.2 0.8 2.4
v 3.2 0.8 0.0999999
v 3.2 0.8 -0.1
v 3.2 0.8 -2.4
v 3.2 0.8 -2.6
v 3.2 0.8 -3.2
v -3.2 0 3.2
v -3.2 0.8 3.2
v 3.2 0 3.2
v 3.2 0.8 3.2
v -1.3 4.3 1.7
v -1.3 4.4 1.7
v -1 4.3 1.7
v -1 4.4 1.7
v -1.2 4.4 1.6
v -1.2 4.5 1.6
v -1.1 4.4 1.6
v -1.1 4.5 1.6
v -1.2 4.2 0.8
v -1.2 4.3 0.8
v -1.1 4.2 0.8
v -1.1 4.3 0.8
v -1.2 4.1 0.7
v -1.2 4.2 0.7
v -1.1 4.1 0.7
v -1.1 4.2 0.7
v -1.2 4 0.6
v -1.2 4.1 0.6
v -1.1 4 0.6
v -1.1 4.1 0.6
v -1.2 3.9 0.5
v -1.2 4 0.5
v -1.1 3.9 0.5
v -1.1 4 0.5
v -1.2 3.8 0.4
v -1.2 3.9 0.4
v -1.1 3.8 0.4
v -1.1 3.9 0.4
v -1.2 3.7 0.3
v -1.2 3.8 0.3
v -1.1 3.7 0.3
v -1.1 3.8 0.3
v -1.2 3.6 0.2
v -1.2 3.7 0.2
v -1.1 3.6 0.2
v -1.1 3.7 0.2
v -1.2 3.5 0.0999999
v -1.2 3.6 0.0999999
v -1.1 3.5 0.0999999
v -1.1 3.6 0.0999999
v -1.2 0.8 0
v -1.2 3.5 0
v -1.2 3.6 0
v -1.2 4.3 0
v -1.1 0.8 0
v -1.1 3.5 0
v -1.1 3.6 0
v -1.1 4.3 0
v -1.2 3.7 -0.2
v -1.2 3.8 -0.2
v -1.1 3.7 -0.2
v -1.1 3.8 -0.2
v -1.2 3.8 -0.3
v -1.2 3.9 -0.3
v -1.1 3.8 -0.3
v -1.1 3.9 -0.3
v -1.2 3.9 -0.4
v -1.2 4 -0.4
v -1.1 3.9 -0.4
v -1.1 4 -0.4
v -1.2 4 -0.5
v -1.2 4.1 -0.5
v -1.1 4 -0.5
v -1.1 4.1 -0.5
v -1.2 4.1 -0.6
v -1.2 4.2 -0.6
v -1.1 4.1 -0.6
v -1.1 4.2 -0.6
v -1.2 4.2 -0.7
v -1.2 4.3 -0.7
v -1.1 4.2 -0.7
v -1.1 4.3 -0.7
v -1.3 4.3 -1.4
v -1.3 4.4 -1.4
v -1.2 4.3 -1.4
v -1.2 4.4 -1.4
v -1.1 4.3 -1.4
v -1.1 4.4 -1.4
v -1 4.3 -1.4
v -1 4.4 -1.4
v -1.2 4.4 -1.5
v -1.2 4.5 -1.5
v -1.1 4.4 -1.5
v -1.1 4.5 -1.5
v -1.2 4.4 1.5
v -1.2 4.5 1.5
v -1.1 4.4 1.5
v -1.1 4.5 1.5
v -1.3 4.3 1.4
v -1.3 4.4 1.4
v -1.2 4.3 1.4
v -1.2 4.4 1.4
v -1.1 4.3 1.4
v -1.1 4.4 1.4
v -1 4.3 1.4
v -1 4.4 1.4
v -1.2 4.2 0.7
v -1.2 4.3 0.7
v -1.1 4.2 0.7
v -1.1 4.3 0.7
v -1.2 4.1 0.6
v -1.2 4.2 0.6
v -1.1 4.1 0.6
v -1.1 4.2 0.6
v -1.2 4 0.5
v -1.2 4.1 0.5
v -1.1 4 0.5
v -1.1 4.1 0.5
v -1.2 3.9 0.4
v -1.2 4 0.4
v -1.1 3.9 0.4
v -1.1 4 0.4
v -1.2 3.8 0.3
v -1.2 3.9 0.3
v -1.1 3.8 0.3
v -1.1 3.9 0.3
v -1.2 3.7 0.2
v -1.2 3.8 0.2
v -1.1 3.7 0.2
v -1.1 3.8 0.2
v -1.2 3.6 0.0999999
v -1.2 3.7 0.0999999
v -1.1 3.6 0.0999999
v -1.1 3.7 0.0999999
v -1.2 0.8 -0.1
v -1.2 3.6 -0.1
v -1.2 3.7 -0.1
v -1.2 4.3 -0.1
v -1.1 0.8 -0.1
v -1.1 3.6 -0.1
v -1.1 3.7 -0.1
v -1.1 4.3 -0.1
v -1.2 3.6 -0.2
v -1.2 3.7 -0.2
v -1.1 3.6 -0.2
v -1.1 3.7 -0.2
v -1.2 3.7 -0.3
v -1.2 3.8 -0.3
v -1.1 3.7 -0.3
v -1.1 3.8 -0.3
v -1.2 3.8 -0.4
v -1.2 3.9 -0.4
v -1.1 3.8 -0.4
v -1.1 3.9 -0.4
v -1.2 3.9 -0.5
v -1.2 4 -0.5
v -1.1 3.9 -0.5
v -1.1 4 -0.5
v -1.2 4 -0.6
v -1.2 4.1 -0.6
v -1.1 4 -0.6
v -1.1 4.1 -0.6
v -1.2 4.1 -0.7
v -1.2 4.2 -0.7
v -1.1 4.1 -0.7
v -1.1 4.2 -0.7
v -1.2 4.2 -0.8
v -1.2 4.3 -0.8
v -1.1 4.2 -0.8
v -1.1 4.3 -0.8
v -1.2 4.4 -1.6
v -1.2 4.5 -1.6
v -1.1 4.4 -1.6
v -1.1 4.5 -1.6
v -1.3 4.3 -1.7
v -1.3 4.4 -1.7
v -1 4.3 -1.7
v -1 4.4 -1.7
v -3.2 0 -3.2
v -3.2 0.8 -3.2
v 3.2 0 -3.2
v 3.2 0.8 -3.2
v -3.2 0 3.2
v 3.2 0 3.2
v -3.2 0 2.6
v 3.2 0 2.6
v -3.2 0 -2.6
v 3.2 0 -2.6
v -3.2 0 -3.2
v 3.2 0 -3.2
v -1.2 3.5 0.0999999
v -1.1 3.5 0.0999999
v -1.2 3.5 0
v -1.1 3.5 0
v -1.2 3.6 0.2
v -1.1 3.6 0.2
v -1.2 3.6 0.0999999
v -1.1 3.6 0.0999999
v -1.2 3.6 -0.1
v -1.1 3.6 -0.1
v -1.2 3.6 -0.2
v -1.1 3.6 -0.2
v -1.2 3.7 0.3
v -1.1 3.7 0.3
v -1.2 3.7 0.2
v -1.1 3.7 0.2
v -1.2 3.7 -0.2
v -1.1 3.7 -0.2
v -1.2 3.7 -0.3
v -1.1 3.7 -0.3
v -1.2 3.8 0.4
v -1.1 3.8 0.4
v -1.2 3.8 0.3
v -1.1 3.8 0.3
v -1.2 3.8 -0.3
v -1.1 3.8 -0.3
v -1.2 3.8 -0.4
v -1.1 3.8 -0.4
v -1.2 3.9 0.5
v -1.1 3.9 0.5
v -1.2 3.9 0.4
v -1.1 3.9 0.4
v -1.2 3.9 -0.4
v -1.1 3.9 -0.4
v -1.2 3.9 -0.5
v -1.1 3.9 -0.5
v -1.2 4 0.6
v -1.1 4 0.6
v -1.2 4 0.5
v -1.1 4 0.5
v -1.2 4 -0.5
v -1.1 4 -0.5
v -1.2 4 -0.6
v -1.1 4 -0.6
v -1.2 4.1 0.7
v -1.1 4.1 0.7
v -1.2 4.1 0.6
v -1.1 4.1 0.6
v -1.2 4.1 -0.6
v -1.1 4.1 -0.6
v -1.2 4.1 -0.7
v -1.1 4.1 -0.7
v -1.2 4.2 0.8
v -1.1 4.2 0.8
v -1.2 4.2 0.7
v -1.1 4.2 0.7
v -1.2 4.2 -0.7
v -1.1 4.2 -0.7
v -1.2 4.2 -0.8
v -1.1 4.2 -0.8
v -1.3 4.3 1.7
v -1 4.3 1.7
v -1.2 4.3 1.6
v -1.1 4.3 1.6
v -1.2 4.3 1.5
v -1.1 4.3 1.5
v -1.3 4.3 1.4
v -1.2 4.3 1.4
v -1.1 4.3 1.4
v -1 4.3 1.4
v -1.2 4.3 0.8
v -1.1 4.3 0.8
v -1.2 4.3 0.7
v -1.1 4.3 0.7
v -1.2 4.3 0
v -1.1 4.3 0
v -1.2 4.3 -0.1
v -1.1 4.3 -0.1
v -1.2 4.3 -0.7
v -1.1 4.3 -0.7
v -1.2 4.3 -0.8
v -1.1 4.3 -0.8
v -1.3 4.3 -1.4
v -1.2 4.3 -1.4
v -1.1 4.3 -1.4
v -1 4.3 -1.4
v -1.2 4.3 -1.5
v -1.1 4.3 -1.5
v -1.2 4.3 -1.6
v -1.1 4.3 -1.6
v -1.3 4.3 -1.7
v -1 4.3 -1.7
v -3.2 0.8 3.2
v 3.2 0.8 3.2
v -3.2 0.8 2.6
v 3.2 0.8 2.6
v -3.2 0.8 2.4
v 3.2 0.8 2.4
v -3 0.8 1.3
v -2.6 0.8 1.3
v -2.2 0.8 1.3
v -1.8 0.8 1.3
v -1.4 0.8 1.3
v -1 0.8 1.3
v -0.6 0.8 1.3
v -0.2 0.8 1.3
v 0.2 0.8 1.3
v 0.6 0.8 1.3
v 1 0.8 1.3
v 1.4 0.8 1.3
v 1.8 0.8 1.3
v 2.2 0.8 1.3
v 2.6 0.8 1.3
v 3 0.8 1.3
v -3 0.8 1.2
v -2.6 0.8 1.2
v -2.2 0.8 1.2
v -1.8 0.8 1.2
v -1.4 0.8 1.2
v -1 0.8 1.2
v -0.6 0.8 1.2
v -0.2 0.8 1.2
v 0.2 0.8 1.2
v 0.6 0.8 1.2
v 1 0.8 1.2
v 1.4 0.8 1.2
v 1.8 0.8 1.2
v 2.2 0.8 1.2
v 2.6 0.8 1.2
v 3 0.8 1.2
v -3.2 0.8 0.0999999
v 3.2 0.8 0.0999999
v -1.2 0.8 0
v -1.1 0.8 0
v -3.2 0.8 -0.1
v -1.2 0.8 -0.1
v -1.1 0.8 -0.1
v 3.2 0.8 -0.1
v -3 0.8 -1.2
v -2.6 0.8 -1.2
v -2.2 0.8 -1.2
v -1.8 0.8 -1.2
v -1.4 0.8 -1.2
v -1 0.8 -1.2
v -0.6 0.8 -1.2
v -0.2 0.8 -1.2
v 0.2 0.8 -1.2
v 0.6 0.8 -1.2
v 1 0.8 -1.2
v 1.4 0.8 -1.2
v 1.8 0.8 -1.2
v 2.2 0.8 -1.2
v 2.6 0.8 -1.2
v 3 0.8 -1.2
v -3 0.8 -1.3
v -2.6 0.8 -1.3
v -2.2 0.8 -1.3
v -1.8 0.8 -1.3
v -1.4 0.8 -1.3
v -1 0.8 -1.3
v -0.6 0.8 -1.3
v -0.2 0.8 -1.3
v 0.2 0.8 -1.3
v 0.6 0.8 -1.3
v 1 0.8 -1.3
v 1.4 0.8 -1.3
v 1.8 0.8 -1.3
v 2.2 0.8 -1.3
v 2.6 0.8 -1.3
v 3 0.8 -1.3
v -3.2 0.8 -2.4
v 3.2 0.8 -2.4
v -3.2 0.8 -2.6
v 3.2 0.8 -2.6
v -3.2 0.8 -3.2
v 3.2 0.8 -3.2
v -1.2 3.6 0.0999999
v -1.1 3.6 0.0999999
v -1.2 3.6 0
v -1.1 3.6 0
v -1.2 3.7 0.2
v -1.1 3.7 0.2
v -1.2 3.7 0.0999999
v -1.1 3.7 0.0999999
v -1.2 3.7 -0.1
v -1.1 3.7 -0.1
v -1.2 3.7 -0.2
v -1.1 3.7 -0.2
v -1.2 3.8 0.3
v -1.1 3.8 0.3
v -1.2 3.8 0.2
v -1.1 3.8 0.2
v -1.2 3.8 -0.2
v -1.1 3.8 -0.2
v -1.2 3.8 -0.3
v -1.1 3.8 -0.3
v -1.2 3.9 0.4
v -1.1 3.9 0.4
v -1.2 3.9 0.3
v -1.1 3.9 0.3
v -1.2 3.9 -0.3
v -1.1 3.9 -0.3
v -1.2 3.9 -0.4
v -1.1 3.9 -0.4
v -1.2 4 0.5
v -1.1 4 0.5
v -1.2 4 0.4
v -1.1 4 0.4
v -1.2 4 -0.4
v -1.1 4 -0.4
v -1.2 4 -0.5
v -1.1 4 -0.5
v -1.2 4.1 0.6
v -1.1 4.1 0.6
v -1.2 4.1 0.5
v -1.1 4.1 0.5
v -1.2 4.1 -0.5
v -1.1 4.1 -0.5
v -1.2 4.1 -0.6
v -1.1 4.1 -0.6
v -1.2 4.2 0.7
v -1.1 4.2 0.7
v -1.2 4.2 0.6
v -1.1 4.2 0.6
v -1.2 4.2 -0.6
v -1.1 4.2 -0.6
v -1.2 4.2 -0.7
v -1.1 4.2 -0.7
v -1.3 4.4 1.7
v -1 4.4 1.7
v -1.2 4.4 1.6
v -1.1 4.4 1.6
v -1.2 4.4 1.5
v -1.1 4.4 1.5
v -1.3 4.4 1.4
v -1.2 4.4 1.4
v -1.1 4.4 1.4
v -1 4.4 1.4
v -1.3 4.4 -1.4
v -1.2 4.4 -1.4
v -1.1 4.4 -1.4
v -1 4.4 -1.4
v -1.2 4.4 -1.5
v -1.1 4.4 -1.5
v -1.2 4.4 -1.6
v -1.1 4.4 -1.6
v -1.3 4.4 -1.7
v -1 4.4 -1.7
v -1.2 4.5 1.6
v -1.1 4.5 1.6
v -1.2 4.5 1.5
v -1.1 4.5 1.5
v -1.2 4.5 -1.5
v -1.1 4.5 -1.5
v -1.2 4.5 -1.6
v -1.1 4.5 -1.6

# faces
f 5/1/1 2/1/1 1/1/1
f 5/2/1 3/2/1 2/2/1
f 6/2/1 3/2/1 5/2/1
f 7/2/1 3/2/1 6/2/1
f 8/2/1 3/2/1 7/2/1
f 9/2/1 3/2/1 8/2/1
f 10/1/1 4/1/1 3/1/1
f 10/2/1 3/2/1 9/2/1
f 11/1/1 5/1/1 1/1/1
f 12/3/1 6/3/1 5/3/1
f 12/1/1 5/1/1 11/1/1
f 13/2/1 7/2/1 6/2/1
f 13/3/1 6/3/1 12/3/1
f 14/3/1 8/3/1 7/3/1
f 14/2/1 7/2/1 13/2/1
f 15/2/1 9/2/1 8/2/1
f 15/3/1 8/3/1 14/3/1
f 16/3/1 10/3/1 9/3/1
f 16/2/1 9/2/1 15/2/1
f 17/1/1 4/1/1 10/1/1
f 17/3/1 10/3/1 16/3/1
f 18/1/1 4/1/1 17/1/1
f 23/2/1 20/2/1 19/2/1
f 24/2/1 20/2/1 23/2/1
f 25/2/1 22/2/1 21/2/1
f 26/2/1 22/2/1 25/2/1
f 30/2/1 28/2/1 27/2/1
f 32/2/1 30/2/1 29/2/1
f 33/2/1 28/2/1 30/2/1
f 33/2/1 30/2/1 32/2/1
f 34/2/1 28/2/1 33/2/1
f 37/2/1 32/2/1 31/2/1
f 38/2/1 32/2/1 37/2/1
f 39/2/1 34/2/1 33/2/1
f 39/2/1 35/2/1 34/2/1
f 40/2/1 35/2/1 39/2/1
f 43/2/1 37/2/1 36/2/1
f 44/2/1 37/2/1 43/2/1
f 45/2/1 41/2/1 40/2/1
f 46/2/1 41/2/1 45/2/1
f 49/2/1 43/2/1 42/2/1
f 50/2/1 43/2/1 49/2/1
f 51/2/1 47/2/1 46/2/1
f 52/2/1 47/2/1 51/2/1
f 55/2/1 49/2/1 48/2/1
f 56/2/1 49/2/1 55/2/1
f 57/2/1 53/2/1 52/2/1
f 58/2/1 53/2/1 57/2/1
f 61/2/1 55/2/1 54/2/1
f 62/2/1 55/2/1 61/2/1
f 63/2/1 59/2/1 58/2/1
f 64/2/1 59/2/1 63/2/1
f 67/2/1 61/2/1 60/2/1
f 68/2/1 61/2/1 67/2/1
f 69/2/1 65/2/1 64/2/1
f 70/2/1 65/2/1 69/2/1
f 73/2/1 67/2/1 66/2/1
f 74/2/1 67/2/1 73/2/1
f 75/2/1 39/2/1 33/2/1
f 76/2/1 39/2/1 75/2/1
f 77/2/1 71/2/1 70/2/1
f 78/2/1 71/2/1 77/2/1
f 82/2/1 76/2/1 75/2/1
f 82/2/1 74/2/1 73/2/1
f 82/2/1 79/2/1 78/2/1
f 82/2/1 78/2/1 77/2/1
f 82/2/1 77/2/1 76/2/1
f 82/2/1 73/2/1 72/2/1
f 82/2/1 75/2/1 74/2/1
f 83/2/1 79/2/1 82/2/1
f 86/2/1 81/2/1 80/2/1
f 87/2/1 81/2/1 86/2/1
f 88/2/1 85/2/1 84/2/1
f 89/2/1 85/2/1 88/2/1
f 90/2/2 91/2/2 93/2/2
f 92/2/2 93/2/2 95/2/2
f 93/2/2 91/2/2 96/2/2
f 95/2/2 93/2/2 96/2/2
f 96/2/2 91/2/2 97/2/2
f 94/2/2 95/2/2 100/2/2
f 100/2/2 95/2/2 101/2/2
f 96/2/2 97/2/2 102/2/2
f 97/2/2 98/2/2 102/2/2
f 102/2/2 98/2/2 103/2/2
f 99/2/2 100/2/2 106/2/2
f 106/2/2 100/2/2 107/2/2
f 103/2/2 104/2/2 108/2/2
f 108/2/2 104/2/2 109/2/2
f 105/2/2 106/2/2 112/2/2
f 112/2/2 106/2/2 113/2/2
f 109/2/2 110/2/2 114/2/2
f 114/2/2 110/2/2 115/2/2
f 111/2/2 112/2/2 118/2/2
f 118/2/2 112/2/2 119/2/2
f 115/2/2 116/2/2 120/2/2
f 120/2/2 116/2/2 121/2/2
f 117/2/2 118/2/2 124/2/2
f 124/2/2 118/2/2 125/2/2
f 121/2/2 122/2/2 126/2/2
f 126/2/2 122/2/2 127/2/2
f 123/2/2 124/2/2 130/2/2
f 130/2/2 124/2/2 131/2/2
f 127/2/2 128/2/2 132/2/2
f 132/2/2 128/2/2 133/2/2
f 129/2/2 130/2/2 136/2/2
f 136/2/2 130/2/2 137/2/2
f 96/2/2 102/2/2 138/2/2
f 138/2/2 102/2/2 139/2/2
f 133/2/2 134/2/2 140/2/2
f 140/2/2 134/2/2 141/2/2
f 138/2/2 139/2/2 145/2/2
f 136/2/2 137/2/2 145/2/2
f 141/2/2 142/2/2 145/2/2
f 140/2/2 141/2/2 145/2/2
f 139/2/2 140/2/2 145/2/2
f 135/2/2 136/2/2 145/2/2
f 137/2/2 138/2/2 145/2/2
f 145/2/2 142/2/2 146/2/2
f 143/2/2 144/2/2 149/2/2
f 149/2/2 144/2/2 150/2/2
f 147/2/2 148/2/2 151/2/2
f 151/2/2 148/2/2 152/2/2
f 153/2/2 154/2/2 157/2/2
f 157/2/2 154/2/2 158/2/2
f 155/2/2 156/2/2 159/2/2
f 159/2/2 156/2/2 160/2/2
f 161/1/2 162/1/2 165/1/2
f 162/2/2 163/2/2 165/2/2
f 165/2/2 163/2/2 166/2/2
f 166/2/2 163/2/2 167/2/2
f 167/2/2 163/2/2 168/2/2
f 168/2/2 163/2/2 169/2/2
f 163/1/2 164/1/2 170/1/2
f 169/2/2 163/2/2 170/2/2
f 161/1/2 165/1/2 171/1/2
f 165/3/2 166/3/2 172/3/2
f 171/1/2 165/1/2 172/1/2
f 166/2/2 167/2/2 173/2/2
f 172/3/2 166/3/2 173/3/2
f 167/3/2 168/3/2 174/3/2
f 173/2/2 167/2/2 174/2/2
f 168/2/2 169/2/2 175/2/2
f 174/3/2 168/3/2 175/3/2
f 169/3/2 170/3/2 176/3/2
f 175/2/2 169/2/2 176/2/2
f 170/1/2 164/1/2 177/1/2
f 176/3/2 170/3/2 177/3/2
f 177/1/2 164/1/2 178/1/2
f 181/1/3 180/1/3 179/1/3
f 182/1/3 180/1/3 181/1/3
f 185/2/3 184/2/3 183/2/3
f 186/2/3 184/2/3 185/2/3
f 189/2/3 188/2/3 187/2/3
f 190/2/3 188/2/3 189/2/3
f 193/2/3 192/2/3 191/2/3
f 194/2/3 192/2/3 193/2/3
f 197/2/3 196/2/3 195/2/3
f 198/2/3 196/2/3 197/2/3
f 201/2/3 200/2/3 199/2/3
f 202/2/3 200/2/3 201/2/3
f 205/2/3 204/2/3 203/2/3
f 206/2/3 204/2/3 205/2/3
f 209/2/3 208/2/3 207/2/3
f 210/2/3 208/2/3 209/2/3
f 213/2/3 212/2/3 211/2/3
f 214/2/3 212/2/3 213/2/3
f 217/2/3 216/2/3 215/2/3
f 218/2/3 216/2/3 217/2/3
f 221/2/3 220/2/3 219/2/3
f 222/2/3 220/2/3 221/2/3
f 227/2/3 224/2/3 223/2/3
f 228/2/3 224/2/3 227/2/3
f 229/2/3 226/2/3 225/2/3
f 230/2/3 226/2/3 229/2/3
f 233/2/3 232/2/3 231/2/3
f 234/2/3 232/2/3 233/2/3
f 237/2/3 236/2/3 235/2/3
f 238/2/3 236/2/3 237/2/3
f 241/2/3 240/2/3 239/2/3
f 242/2/3 240/2/3 241/2/3
f 245/2/3 244/2/3 243/2/3
f 246/2/3 244/2/3 245/2/3
f 249/2/3 248/2/3 247/2/3
f 250/2/3 248/2/3 249/2/3
f 253/2/3 252/2/3 251/2/3
f 254/2/3 252/2/3 253/2/3
f 257/2/3 256/2/3 255/2/3
f 258/2/3 256/2/3 257/2/3
f 261/2/3 260/2/3 259/2/3
f 262/2/3 260/2/3 261/2/3
f 265/2/3 264/2/3 263/2/3
f 266/2/3 264/2/3 265/2/3
f 267/2/4 268/2/4 269/2/4
f 269/2/4 268/2/4 270/2/4
f 271/2/4 272/2/4 273/2/4
f 273/2/4 272/2/4 274/2/4
f 275/2/4 276/2/4 277/2/4
f 277/2/4 276/2/4 278/2/4
f 279/2/4 280/2/4 281/2/4
f 281/2/4 280/2/4 282/2/4
f 283/2/4 284/2/4 285/2/4
f 285/2/4 284/2/4 286/2/4
f 287/2/4 288/2/4 289/2/4
f 289/2/4 288/2/4 290/2/4
f 291/2/4 292/2/4 293/2/4
f 293/2/4 292/2/4 294/2/4
f 295/2/4 296/2/4 297/2/4
f 297/2/4 296/2/4 298/2/4
f 299/2/4 300/2/4 301/2/4
f 301/2/4 300/2/4 302/2/4
f 303/2/4 304/2/4 305/2/4
f 305/2/4 304/2/4 306/2/4
f 307/2/4 308/2/4 311/2/4
f 311/2/4 308/2/4 312/2/4
f 309/2/4 310/2/4 313/2/4
f 313/2/4 310/2/4 314/2/4
f 315/2/4 316/2/4 317/2/4
f 317/2/4 316/2/4 318/2/4
f 319/2/4 320/2/4 321/2/4
f 321/2/4 320/2/4 322/2/4
f 323/2/4 324/2/4 325/2/4
f 325/2/4 324/2/4 326/2/4
f 327/2/4 328/2/4 329/2/4
f 329/2/4 328/2/4 330/2/4
f 331/2/4 332/2/4 333/2/4
f 333/2/4 332/2/4 334/2/4
f 335/2/4 336/2/4 337/2/4
f 337/2/4 336/2/4 338/2/4
f 339/2/4 340/2/4 341/2/4
f 341/2/4 340/2/4 342/2/4
f 343/2/4 344/2/4 345/2/4
f 345/2/4 344/2/4 346/2/4
f 347/2/4 348/2/4 349/2/4
f 349/2/4 348/2/4 350/2/4
f 351/1/4 352/1/4 353/1/4
f 353/1/4 352/1/4 354/1/4
f 357/1/5 356/1/5 355/1/5
f 358/1/5 356/1/5 357/1/5
f 359/2/5 358/2/5 357/2/5
f 360/2/5 358/2/5 359/2/5
f 361/1/5 360/1/5 359/1/5
f 362/1/5 360/1/5 361/1/5
f 365/2/5 364/2/5 363/2/5
f 366/2/5 364/2/5 365/2/5
f 369/2/5 368/2/5 367/2/5
f 370/2/5 368/2/5 369/2/5
f 373/2/5 372/2/5 371/2/5
f 374/2/5 372/2/5 373/2/5
f 377/2/5 376/2/5 375/2/5
f 378/2/5 376/2/5 377/2/5
f 381/2/5 380/2/5 379/2/5
f 382/2/5 380/2/5 381/2/5
f 385/2/5 384/2/5 383/2/5
f 386/2/5 384/2/5 385/2/5
f 389/2/5 388/2/5 387/2/5
f 390/2/5 388/2/5 389/2/5
f 393/2/5 392/2/5 391/2/5
f 394/2/5 392/2/5 393/2/5
f 397/2/5 396/2/5 395/2/5
f 398/2/5 396/2/5 397/2/5
f 401/2/5 400/2/5 399/2/5
f 402/2/5 400/2/5 401/2/5
f 405/2/5 404/2/5 403/2/5
f 406/2/5 404/2/5 405/2/5
f 409/2/5 408/2/5 407/2/5
f 410/2/5 408/2/5 409/2/5
f 413/2/5 412/2/5 411/2/5
f 414/2/5 412/2/5 413/2/5
f 417/2/5 416/2/5 415/2/5
f 418/2/5 416/2/5 417/2/5
f 421/2/5 420/2/5 419/2/5
f 422/2/5 420/2/5 421/2/5
f 425/2/5 424/2/5 423/2/5
f 426/2/5 424/2/5 425/2/5
f 427/2/5 425/2/5 423/2/5
f 427/4/5 426/4/5 425/4/5
f 428/2/5 424/2/5 426/2/5
f 428/4/5 426/4/5 427/4/5
f 429/2/5 427/2/5 423/2/5
f 429/2/5 428/2/5 427/2/5
f 430/2/5 428/2/5 429/2/5
f 431/2/5 424/2/5 428/2/5
f 431/2/5 428/2/5 430/2/5
f 432/2/5 424/2/5 431/2/5
f 433/2/5 431/2/5 430/2/5
f 434/2/5 431/2/5 433/2/5
f 437/2/5 436/2/5 435/2/5
f 438/2/5 436/2/5 437/2/5
f 441/2/5 440/2/5 439/2/5
f 442/2/5 440/2/5 441/2/5
f 446/2/5 444/2/5 443/2/5
f 447/2/5 444/2/5 446/2/5
f 449/2/5 447/2/5 446/2/5
f 449/2/5 448/2/5 447/2/5
f 449/2/5 446/2/5 445/2/5
f 450/2/5 448/2/5 449/2/5
f 451/2/5 449/2/5 445/2/5
f 451/4/5 450/4/5 449/4/5
f 452/2/5 448/2/5 450/2/5
f 452/4/5 450/4/5 451/4/5
f 453/2/5 451/2/5 445/2/5
f 453/2/5 452/2/5 451/2/5
f 454/2/5 448/2/5 452/2/5
f 454/2/5 452/2/5 453/2/5
f 455/1/6 456/1/6 457/1/6
f 457/1/6 456/1/6 458/1/6
f 457/3/6 458/3/6 459/3/6
f 459/3/6 458/3/6 460/3/6
f 459/2/6 460/2/6 461/2/6
f 461/2/6 460/2/6 462/2/6
f 462/2/6 460/2/6 463/2/6
f 463/2/6 460/2/6 464/2/6
f 464/2/6 460/2/6 465/2/6
f 465/2/6 460/2/6 466/2/6
f 466/2/6 460/2/6 467/2/6
f 467/2/6 460/2/6 468/2/6
f 468/2/6 460/2/6 469/2/6
f 469/2/6 460/2/6 470/2/6
f 470/2/6 460/2/6 471/2/6
f 471/2/6 460/2/6 472/2/6
f 472/2/6 460/2/6 473/2/6
f 473/2/6 460/2/6 474/2/6
f 474/2/6 460/2/6 475/2/6
f 475/2/6 460/2/6 476/2/6
f 459/2/6 461/2/6 477/2/6
f 461/3/6 462/3/6 477/3/6
f 462/2/6 463/2/6 478/2/6
f 477/3/6 462/3/6 478/3/6
f 463/3/6 464/3/6 479/3/6
f 478/2/6 463/2/6 479/2/6
f 464/2/6 465/2/6 480/2/6
f 479/3/6 464/3/6 480/3/6
f 465/3/6 466/3/6 481/3/6
f 480/2/6 465/2/6 481/2/6
f 466/2/6 467/2/6 482/2/6
f 481/3/6 466/3/6 482/3/6
f 467/3/6 468/3/6 483/3/6
f 482/2/6 467/2/6 483/2/6
f 468/2/6 469/2/6 484/2/6
f 483/3/6 468/3/6 484/3/6
f 469/3/6 470/3/6 485/3/6
f 484/2/6 469/2/6 485/2/6
f 470/2/6 471/2/6 486/2/6
f 485/3/6 470/3/6 486/3/6
f 471/3/6 472/3/6 487/3/6
f 486/2/6 471/2/6 487/2/6
f 472/2/6 473/2/6 488/2/6
f 487/3/6 472/3/6 488/3/6
f 473/3/6 474/3/6 489/3/6
f 488/2/6 473/2/6 489/2/6
f 474/2/6 475/2/6 490/2/6
f 489/3/6 474/3/6 490/3/6
f 475/3/6 476/3/6 491/3/6
f 490/2/6 475/2/6 491/2/6
f 476/2/6 460/2/6 492/2/6
f 491/3/6 476/3/6 492/3/6
f 490/2/6 491/2/6 493/2/6
f 489/2/6 490/2/6 493/2/6
f 491/2/6 492/2/6 493/2/6
f 488/2/6 489/2/6 493/2/6
f 487/2/6 488/2/6 493/2/6
f 486/2/6 487/2/6 493/2/6
f 485/2/6 486/2/6 493/2/6
f 484/2/6 485/2/6 493/2/6
f 483/2/6 484/2/6 493/2/6
f 482/2/6 483/2/6 493/2/6
f 481/2/6 482/2/6 493/2/6
f 480/2/6 481/2/6 493/2/6
f 479/2/6 480/2/6 493/2/6
f 478/2/6 479/2/6 493/2/6
f 477/2/6 478/2/6 493/2/6
f 459/2/6 477/2/6 493/2/6
f 492/2/6 460/2/6 494/2/6
f 493/2/6 492/2/6 494/2/6
f 493/3/6 494/3/6 495/3/6
f 495/3/6 494/3/6 496/3/6
f 493/3/6 495/3/6 497/3/6
f 497/3/6 495/3/6 498/3/6
f 496/3/6 494/3/6 499/3/6
f 499/3/6 494/3/6 500/3/6
f 497/2/6 498/2/6 501/2/6
f 498/2/6 499/2/6 501/2/6
f 499/2/6 500/2/6 501/2/6
f 501/2/6 500/2/6 502/2/6
f 502/2/6 500/2/6 503/2/6
f 503/2/6 500/2/6 504/2/6
f 504/2/6 500/2/6 505/2/6
f 505/2/6 500/2/6 506/2/6
f 506/2/6 500/2/6 507/2/6
f 507/2/6 500/2/6 508/2/6
f 508/2/6 500/2/6 509/2/6
f 509/2/6 500/2/6 510/2/6
f 510/2/6 500/2/6 511/2/6
f 511/2/6 500/2/6 512/2/6
f 512/2/6 500/2/6 513/2/6
f 513/2/6 500/2/6 514/2/6
f 514/2/6 500/2/6 515/2/6
f 515/2/6 500/2/6 516/2/6
f 497/2/6 501/2/6 517/2/6
f 501/3/6 502/3/6 517/3/6
f 502/2/6 503/2/6 518/2/6
f 517/3/6 502/3/6 518/3/6
f 503/3/6 504/3/6 519/3/6
f 518/2/6 503/2/6 519/2/6
f 504/2/6 505/2/6 520/2/6
f 519/3/6 504/3/6 520/3/6
f 505/3/6 506/3/6 521/3/6
f 520/2/6 505/2/6 521/2/6
f 506/2/6 507/2/6 522/2/6
f 521/3/6 506/3/6 522/3/6
f 507/3/6 508/3/6 523/3/6
f 522/2/6 507/2/6 523/2/6
f 508/2/6 509/2/6 524/2/6
f 523/3/6 508/3/6 524/3/6
f 509/3/6 510/3/6 525/3/6
f 524/2/6 509/2/6 525/2/6
f 510/2/6 511/2/6 526/2/6
f 525/3/6 510/3/6 526/3/6
f 511/3/6 512/3/6 527/3/6
f 526/2/6 511/2/6 527/2/6
f 512/2/6 513/2/6 528/2/6
f 527/3/6 512/3/6 528/3/6
f 513/3/6 514/3/6 529/3/6
f 528/2/6 513/2/6 529/2/6
f 514/2/6 515/2/6 530/2/6
f 529/3/6 514/3/6 530/3/6
f 515/3/6 516/3/6 531/3/6
f 530/2/6 515/2/6 531/2/6
f 516/2/6 500/2/6 532/2/6
f 531/3/6 516/3/6 532/3/6
f 530/2/6 531/2/6 533/2/6
f 529/2/6 530/2/6 533/2/6
f 531/2/6 532/2/6 533/2/6
f 528/2/6 529/2/6 533/2/6
f 527/2/6 528/2/6 533/2/6
f 526/2/6 527/2/6 533/2/6
f 525/2/6 526/2/6 533/2/6
f 524/2/6 525/2/6 533/2/6
f 523/2/6 524/2/6 533/2/6
f 522/2/6 523/2/6 533/2/6
f 521/2/6 522/2/6 533/2/6
f 520/2/6 521/2/6 533/2/6
f 519/2/6 520/2/6 533/2/6
f 518/2/6 519/2/6 533/2/6
f 517/2/6 518/2/6 533/2/6
f 497/2/6 517/2/6 533/2/6
f 532/2/6 500/2/6 534/2/6
f 533/2/6 532/2/6 534/2/6
f 533/3/6 534/3/6 535/3/6
f 535/3/6 534/3/6 536/3/6
f 535/1/6 536/1/6 537/1/6
f 537/1/6 536/1/6 538/1/6
f 539/2/6 540/2/6 541/2/6
f 541/2/6 540/2/6 542/2/6
f 543/2/6 544/2/6 545/2/6
f 545/2/6 544/2/6 546/2/6
f 547/2/6 548/2/6 549/2/6
f 549/2/6 548/2/6 550/2/6
f 551/2/6 552/2/6 553/2/6
f 553/2/6 552/2/6 554/2/6
f 555/2/6 556/2/6 557/2/6
f 557/2/6 556/2/6 558/2/6
f 559/2/6 560/2/6 561/2/6
f 561/2/6 560/2/6 562/2/6
f 563/2/6 564/2/6 565/2/6
f 565/2/6 564/2/6 566/2/6
f 567/2/6 568/2/6 569/2/6
f 569/2/6 568/2/6 570/2/6
f 571/2/6 572/2/6 573/2/6
f 573/2/6 572/2/6 574/2/6
f 575/2/6 576/2/6 577/2/6
f 577/2/6 576/2/6 578/2/6
f 579/2/6 580/2/6 581/2/6
f 581/2/6 580/2/6 582/2/6
f 583/2/6 584/2/6 585/2/6
f 585/2/6 584/2/6 586/2/6
f 587/2/6 588/2/6 589/2/6
f 589/2/6 588/2/6 590/2/6
f 591/2/6 592/2/6 593/2/6
f 593/2/6 592/2/6 594/2/6
f 591/2/6 593/2/6 595/2/6
f 594/2/6 592/2/6 596/2/6
f 591/2/6 595/2/6 597/2/6
f 595/2/6 596/2/6 597/2/6
f 597/2/6 596/2/6 598/2/6
f 596/2/6 592/2/6 599/2/6
f 598/2/6 596/2/6 599/2/6
f 599/2/6 592/2/6 600/2/6
f 598/2/6 599/2/6 602/2/6
f 602/2/6 599/2/6 603/2/6
f 601/2/6 602/2/6 605/2/6
f 603/2/6 604/2/6 605/2/6
f 602/2/6 603/2/6 605/2/6
f 605/2/6 604/2/6 606/2/6
f 601/2/6 605/2/6 607/2/6
f 606/2/6 604/2/6 608/2/6
f 601/2/6 607/2/6 609/2/6
f 607/2/6 608/2/6 609/2/6
f 608/2/6 604/2/6 610/2/6
f 609/2/6 608/2/6 610/2/6
f 611/2/6 612/2/6 613/2/6
f 613/2/6 612/2/6 614/2/6
f 615/2/6 616/2/6 617/2/6
f 617/2/6 616/2/6 618/2/6
